<svg width="363" height="363" viewBox="0 0 363 363" fill="none" xmlns="http://www.w3.org/2000/svg">
<rect width="363" height="363" fill="white"/>
<path d="M107.32 266.102C107.32 268.832 109.99 270.523 113.135 270.731C119.129 271.176 124.944 275.241 124.944 281.501V289.127C124.944 295.387 119.544 300.461 113.017 300.461C106.341 300.461 101 295.358 101 289.127V283.964H107.261V289.127C107.261 291.856 109.872 294.2 112.987 294.2C116.102 294.2 118.595 291.856 118.595 289.127V281.501C118.595 278.772 115.924 276.873 112.868 276.873C106.548 276.873 101 272.303 101 266.102V258.269C101 252.008 106.341 246.935 112.987 246.935C119.633 246.935 124.915 252.008 124.915 258.269V263.61H118.654V258.269C118.654 255.48 116.043 253.195 112.987 253.195C109.783 253.195 107.32 255.539 107.32 258.269V266.102V266.102Z" fill="#B00AEA"/>
<path d="M153.814 300.194H147.494V277.436H137.139V300.194H130.819V246.935H137.139V271.176H147.494V246.935H153.814V300.194Z" fill="#B00AEA"/>
<path d="M186.215 289.839C186.215 295.98 180.073 300.609 173.1 300.609C166.246 300.609 159.986 295.98 159.986 289.839V257.675C159.986 251.533 166.246 246.905 173.1 246.905C180.073 246.905 186.215 251.533 186.215 257.675V289.839ZM179.954 289.839V257.675C179.954 255.005 176.75 253.047 173.1 253.047C169.51 253.047 166.246 255.005 166.246 257.675V289.809C166.246 292.479 169.51 294.438 173.1 294.438C176.75 294.467 179.954 292.509 179.954 289.839Z" fill="#B00AEA"/>
<path d="M205.827 300.194H199.122L191.229 246.935H197.608L202.504 279.157L207.4 246.935H214.105L219.001 279.157L223.897 246.935H230.276L222.384 300.194H215.678L210.723 267.912L205.827 300.194Z" fill="#B00AEA"/>
<path d="M241.759 266.102C241.759 268.832 244.429 270.523 247.574 270.731C253.568 271.176 259.383 275.241 259.383 281.501V289.127C259.383 295.387 253.983 300.461 247.455 300.461C240.809 300.461 235.468 295.387 235.468 289.127V283.964H241.729V289.127C241.729 291.856 244.34 294.2 247.455 294.2C250.571 294.2 253.063 291.856 253.063 289.127V281.501C253.063 278.772 250.393 276.873 247.337 276.873C241.017 276.873 235.468 272.303 235.468 266.102V258.269C235.468 252.008 240.809 246.935 247.455 246.935C254.102 246.935 259.383 252.008 259.383 258.269V263.61H253.123V258.269C253.123 255.48 250.512 253.195 247.455 253.195C244.251 253.195 241.788 255.539 241.788 258.269V266.102H241.759Z" fill="#B00AEA"/>
<path fill-rule="evenodd" clip-rule="evenodd" d="M245.319 63.0048L161.572 102.36C168.353 103.525 174.291 106.518 178.619 110.983C175.296 116.65 173.546 123.237 173.546 130.298C173.546 137.686 175.652 144.57 179.628 150.326C178.857 151.572 178.056 152.848 177.195 154.094L158.265 182.341H147.185L192.683 231.357C198.024 237.113 207.578 235.007 210.011 227.559L231.855 160.402L217.132 182.371H194.642L214.135 155.341L214.343 155.014C212.8 155.578 210.575 155.904 208.795 155.904C195.057 155.904 182.981 145.609 182.981 130.328C182.981 112.496 196.926 101.844 213.898 101.844C228.651 101.844 240.866 109.853 244.022 122.996L259.472 75.4962C262.261 66.9213 253.479 59.1772 245.319 63.0048ZM112.601 125.373L126.327 118.923C124.919 122.283 124.144 126.09 124.144 130.298C124.144 145.579 136.22 155.875 149.957 155.875C151.737 155.875 153.933 155.548 155.506 154.985L155.298 155.311L140.781 175.441L109.427 141.662C104.709 136.559 106.311 128.34 112.601 125.373ZM154.942 142.048C147.643 142.048 142.747 136.856 142.747 129.764C142.747 122.347 147.732 117.125 155.15 117.125C162.567 117.125 167.344 122.881 167.344 129.646C167.344 136.945 162.241 142.048 154.942 142.048ZM201.614 129.764C201.614 122.317 206.599 117.125 214.017 117.125C221.464 117.125 226.211 122.881 226.211 129.646C226.211 136.945 221.138 142.048 213.809 142.048C206.48 142.048 201.614 136.856 201.614 129.764Z" fill="#B00AEA"/>
</svg>
