<svg width="159" height="239" viewBox="0 0 159 239" fill="none" xmlns="http://www.w3.org/2000/svg">
<path d="M6.3199 204.102C6.3199 206.832 8.99027 208.523 12.1354 208.731C18.1289 209.176 23.9444 213.241 23.9444 219.501V227.127C23.9444 233.387 18.5443 238.461 12.0167 238.461C5.34076 238.461 0 233.358 0 227.127V221.964H6.26055V227.127C6.26055 229.856 8.87159 232.2 11.987 232.2C15.1025 232.2 17.5948 229.856 17.5948 227.127V219.501C17.5948 216.772 14.9244 214.873 11.8683 214.873C5.54845 214.873 0 210.303 0 204.102V196.269C0 190.008 5.34076 184.935 11.987 184.935C18.6333 184.935 23.9147 190.008 23.9147 196.269V201.61H17.6542V196.269C17.6542 193.48 15.0431 191.195 11.987 191.195C8.78258 191.195 6.3199 193.539 6.3199 196.269V204.102Z" fill="white"/>
<path d="M52.8141 238.194H46.4942V215.436H36.1391V238.194H29.8192V184.935H36.1391V209.176H46.4942V184.935H52.8141V238.194Z" fill="white"/>
<path d="M85.2146 227.839C85.2146 233.98 79.0728 238.609 72.1001 238.609C65.2461 238.609 58.9856 233.98 58.9856 227.839V195.675C58.9856 189.533 65.2461 184.905 72.1001 184.905C79.0728 184.905 85.2146 189.533 85.2146 195.675V227.839ZM78.9541 227.839V195.675C78.9541 193.005 75.7496 191.047 72.1001 191.047C68.5099 191.047 65.2461 193.005 65.2461 195.675V227.809C65.2461 230.479 68.5099 232.438 72.1001 232.438C75.7496 232.467 78.9541 230.509 78.9541 227.839Z" fill="white"/>
<path d="M104.827 238.194H98.1216L90.2292 184.935H96.6084L101.504 217.157L106.4 184.935H113.105L118.001 217.157L122.897 184.935H129.276L121.384 238.194H114.678L109.723 205.912L104.827 238.194Z" fill="white"/>
<path d="M140.759 204.102C140.759 206.832 143.429 208.523 146.574 208.731C152.568 209.176 158.383 213.241 158.383 219.501V227.127C158.383 233.387 152.983 238.461 146.455 238.461C139.809 238.461 134.468 233.387 134.468 227.127V221.964H140.729V227.127C140.729 229.856 143.34 232.2 146.455 232.2C149.571 232.2 152.063 229.856 152.063 227.127V219.501C152.063 216.772 149.393 214.873 146.337 214.873C140.017 214.873 134.468 210.303 134.468 204.102V196.269C134.468 190.008 139.809 184.935 146.455 184.935C153.102 184.935 158.383 190.008 158.383 196.269V201.61H152.123V196.269C152.123 193.48 149.512 191.195 146.455 191.195C143.251 191.195 140.788 193.539 140.788 196.269V204.102H140.759Z" fill="white"/>
<path d="M144.319 1.00476L11.6014 63.3729C5.31116 66.34 3.70894 74.5588 8.42661 79.6622L91.6831 169.357C97.0238 175.113 106.578 173.007 109.011 165.559L158.472 13.4962C161.261 4.92131 152.479 -2.82278 144.319 1.00476Z" fill="#B00AEA"/>
<path d="M78.6281 88.3262C74.6522 82.5701 72.5456 75.6864 72.5456 68.2984C72.5456 61.2367 74.2961 54.6498 77.6193 48.9826C71.9521 43.1375 63.5256 39.8143 54.0606 39.8143C37.1185 39.8143 23.1436 50.4365 23.1436 68.2984C23.1436 83.5789 35.2196 93.8747 48.9572 93.8747C50.7375 93.8747 52.9331 93.5483 54.5057 92.9845L54.298 93.3109L34.8042 120.341H57.2651L76.1951 92.0944C77.0555 90.8482 77.8566 89.5724 78.6281 88.3262ZM53.9419 80.048C46.6429 80.048 41.7472 74.8556 41.7472 67.7643C41.7472 60.3466 46.7319 55.1245 54.1496 55.1245C61.5673 55.1245 66.3443 60.8806 66.3443 67.6456C66.3443 74.9446 61.241 80.048 53.9419 80.048Z" fill="white"/>
<path d="M135.062 92.1241L116.132 120.371H93.6416L113.135 93.3406L113.343 93.0142C111.8 93.5779 109.575 93.9043 107.795 93.9043C94.057 93.9043 81.981 83.6085 81.981 68.328C81.981 50.4958 95.9263 39.844 112.898 39.844C130.077 39.844 143.815 50.7035 143.815 67.883C143.815 77.1699 140.284 84.3503 135.062 92.1241ZM113.017 55.1245C105.599 55.1245 100.614 60.3169 100.614 67.7643C100.614 74.8556 105.48 80.048 112.809 80.048C120.138 80.048 125.211 74.9446 125.211 67.6456C125.211 60.8806 120.464 55.1245 113.017 55.1245Z" fill="white"/>
</svg>
